<svg xmlns="http://www.w3.org/2000/svg" width="1400" height="900" viewBox="0 0 1400 900">
<style>
text{font-family:Arial, Helvetica, sans-serif; fill:#17202a}
.title{font-size:28px; font-weight:700}
.subtitle{font-size:14px; fill:#53606a}
.axis{stroke:#1f2933; stroke-width:1.4}
.grid{stroke:#d9e2ec; stroke-width:1}
.tick{font-size:12px; fill:#52606d}
.label{font-size:12px; font-weight:700}
.team-label{font-size:11px; fill:#394b59}
.legend{font-size:13px}
.quadrant{font-size:13px; fill:#6b7280; font-weight:700}
</style>
<rect x="0" y="0" width="1400" height="900" fill="#ffffff"/>
<text x="90" y="38" class="title">2026 Sector Character + Fastest Team Advantage</text>
<text x="90" y="60" class="subtitle">Hue shows fastest team. Shade shows percent faster than the Ferrari/McLaren/Mercedes/Red Bull median.</text>
<line x1="90.0" y1="80" x2="90.0" y2="810" class="grid"/>
<line x1="90" y1="810.0" x2="1010" y2="810.0" class="grid"/>
<text x="90.0" y="834" text-anchor="middle" class="tick">0</text>
<text x="74" y="814.0" text-anchor="end" class="tick">0</text>
<line x1="274.0" y1="80" x2="274.0" y2="810" class="grid"/>
<line x1="90" y1="664.0" x2="1010" y2="664.0" class="grid"/>
<text x="274.0" y="834" text-anchor="middle" class="tick">20</text>
<text x="74" y="668.0" text-anchor="end" class="tick">20</text>
<line x1="458.0" y1="80" x2="458.0" y2="810" class="grid"/>
<line x1="90" y1="518.0" x2="1010" y2="518.0" class="grid"/>
<text x="458.0" y="834" text-anchor="middle" class="tick">40</text>
<text x="74" y="522.0" text-anchor="end" class="tick">40</text>
<line x1="642.0" y1="80" x2="642.0" y2="810" class="grid"/>
<line x1="90" y1="372.0" x2="1010" y2="372.0" class="grid"/>
<text x="642.0" y="834" text-anchor="middle" class="tick">60</text>
<text x="74" y="376.0" text-anchor="end" class="tick">60</text>
<line x1="826.0" y1="80" x2="826.0" y2="810" class="grid"/>
<line x1="90" y1="226.0" x2="1010" y2="226.0" class="grid"/>
<text x="826.0" y="834" text-anchor="middle" class="tick">80</text>
<text x="74" y="230.0" text-anchor="end" class="tick">80</text>
<line x1="1010.0" y1="80" x2="1010.0" y2="810" class="grid"/>
<line x1="90" y1="80.0" x2="1010" y2="80.0" class="grid"/>
<text x="1010.0" y="834" text-anchor="middle" class="tick">100</text>
<text x="74" y="84.0" text-anchor="end" class="tick">100</text>
<line x1="396.7" y1="80" x2="396.7" y2="810" stroke="#9fb3c8" stroke-width="1.2" stroke-dasharray="6 6"/>
<line x1="90" y1="566.7" x2="1010" y2="566.7" stroke="#9fb3c8" stroke-width="1.2" stroke-dasharray="6 6"/>
<line x1="703.3" y1="80" x2="703.3" y2="810" stroke="#9fb3c8" stroke-width="1.2" stroke-dasharray="6 6"/>
<line x1="90" y1="323.3" x2="1010" y2="323.3" stroke="#9fb3c8" stroke-width="1.2" stroke-dasharray="6 6"/>
<line x1="90" y1="810" x2="1010" y2="810" class="axis"/>
<line x1="90" y1="80" x2="90" y2="810" class="axis"/>
<text x="550.0" y="872" text-anchor="middle" font-size="16" font-weight="700">Speed Score</text>
<text x="28" y="445.0" text-anchor="middle" transform="rotate(-90 28 445.0)" font-size="16" font-weight="700">Stop-Start Score</text>
<text x="242.7" y="145.7" text-anchor="middle" class="quadrant">low speed / stop-start</text>
<text x="856.4" y="145.7" text-anchor="middle" class="quadrant">high speed / stop-start</text>
<text x="242.7" y="751.6" text-anchor="middle" class="quadrant">low speed / flowing</text>
<text x="856.4" y="751.6" text-anchor="middle" class="quadrant">high speed / flowing</text>
<circle cx="547.1" cy="507.4" r="8" fill="#8bd4d2" stroke="#00a19c" stroke-width="2"/>
<text x="557.1" y="487.4" class="label">Australia S1</text>
<text x="557.1" y="501.4" class="team-label">Mercedes +0.28%</text>
<circle cx="993.3" cy="675.4" r="8" fill="#ed7e7e" stroke="#dc0000" stroke-width="2"/>
<text x="1003.3" y="663.4" class="label">Australia S2</text>
<text x="1003.3" y="677.4" class="team-label">Ferrari +0.37%</text>
<circle cx="531.9" cy="541.4" r="8" fill="#88d3d1" stroke="#00a19c" stroke-width="2"/>
<text x="541.9" y="553.4" class="label">Australia S3</text>
<text x="541.9" y="567.4" class="team-label">Mercedes +0.30%</text>
<circle cx="331.5" cy="429.3" r="8" fill="#65c6c3" stroke="#00a19c" stroke-width="2"/>
<text x="341.5" y="409.3" class="label">Canadian S1</text>
<text x="341.5" y="423.3" class="team-label">Mercedes +0.53%</text>
<circle cx="509.3" cy="465.5" r="8" fill="#45bab7" stroke="#00a19c" stroke-width="2"/>
<text x="519.3" y="454.5" class="label">Canadian S2</text>
<text x="519.3" y="468.5" class="team-label">Mercedes +0.73%</text>
<circle cx="530.2" cy="438.9" r="8" fill="#59c2bf" stroke="#00a19c" stroke-width="2"/>
<text x="540.2" y="449.9" class="label">Canadian S3</text>
<text x="540.2" y="463.9" class="team-label">Mercedes +0.60%</text>
<circle cx="445.0" cy="529.2" r="8" fill="#56c1bd" stroke="#00a19c" stroke-width="2"/>
<text x="455.0" y="517.2" class="label">China S1</text>
<text x="455.0" y="531.2" class="team-label">Mercedes +0.62%</text>
<circle cx="427.8" cy="482.8" r="8" fill="#9edbd9" stroke="#00a19c" stroke-width="2"/>
<text x="437.8" y="464.8" class="label">China S2</text>
<text x="437.8" y="478.8" class="team-label">Mercedes +0.16%</text>
<circle cx="480.0" cy="458.4" r="8" fill="#5ac2bf" stroke="#00a19c" stroke-width="2"/>
<text x="490.0" y="446.4" class="label">China S3</text>
<text x="490.0" y="460.4" class="team-label">Mercedes +0.60%</text>
<circle cx="694.8" cy="643.3" r="8" fill="#19aaa6" stroke="#00a19c" stroke-width="2"/>
<text x="704.8" y="631.3" class="label">Japan S1</text>
<text x="704.8" y="645.3" class="team-label">Mercedes +1.01%</text>
<circle cx="582.4" cy="519.5" r="8" fill="#f19898" stroke="#dc0000" stroke-width="2"/>
<text x="592.4" y="507.5" class="label">Japan S2</text>
<text x="592.4" y="521.5" class="team-label">Ferrari +0.20%</text>
<circle cx="527.2" cy="453.6" r="8" fill="#78cdca" stroke="#00a19c" stroke-width="2"/>
<text x="537.2" y="465.6" class="label">Japan S3</text>
<text x="537.2" y="479.6" class="team-label">Mercedes +0.41%</text>
<circle cx="502.8" cy="525.0" r="8" fill="#ffac4f" stroke="#ff8700" stroke-width="2"/>
<text x="512.8" y="507.0" class="label">Miami S1</text>
<text x="512.8" y="521.0" class="team-label">McLaren +0.67%</text>
<circle cx="385.4" cy="508.0" r="8" fill="#85d2d0" stroke="#00a19c" stroke-width="2"/>
<text x="395.4" y="496.0" class="label">Miami S2</text>
<text x="395.4" y="510.0" class="team-label">Mercedes +0.32%</text>
<circle cx="577.8" cy="519.9" r="8" fill="#ffc079" stroke="#ff8700" stroke-width="2"/>
<text x="587.8" y="507.9" class="label">Miami S3</text>
<text x="587.8" y="521.9" class="team-label">McLaren +0.40%</text>
<text x="1055" y="92" font-size="16" font-weight="700">Fastest Team Color</text>
<circle cx="1063" cy="116" r="8" fill="#dc0000" stroke="#dc0000" stroke-width="2"/>
<text x="1081" y="120" class="legend">Ferrari</text>
<circle cx="1063" cy="144" r="8" fill="#ff8700" stroke="#ff8700" stroke-width="2"/>
<text x="1081" y="148" class="legend">McLaren</text>
<circle cx="1063" cy="172" r="8" fill="#00a19c" stroke="#00a19c" stroke-width="2"/>
<text x="1081" y="176" class="legend">Mercedes</text>
<circle cx="1063" cy="200" r="8" fill="#1e41ff" stroke="#1e41ff" stroke-width="2"/>
<text x="1081" y="204" class="legend">Red Bull</text>
<text x="1055" y="247" font-size="16" font-weight="700">Shade Scale</text>
<rect x="1055" y="265" width="46" height="18" rx="3" fill="#b8e5e3" stroke="#00a19c"/>
<text x="1078" y="299" text-anchor="middle" class="tick">0.00%</text>
<rect x="1113" y="265" width="46" height="18" rx="3" fill="#69c8c5" stroke="#00a19c"/>
<text x="1136" y="299" text-anchor="middle" class="tick">0.50%</text>
<rect x="1171" y="265" width="46" height="18" rx="3" fill="#19aaa6" stroke="#00a19c"/>
<text x="1194" y="299" text-anchor="middle" class="tick">1.01%</text>
<text x="1055" y="325" class="subtitle">Darker = larger advantage</text>
<text x="1055" y="345" class="subtitle">Max in chart: 1.009%</text>
<text x="1055" y="382" font-size="16" font-weight="700">Sector Winners</text>
<text x="1055" y="405" class="legend">Australia S1: Mercedes +0.28%</text>
<text x="1055" y="424" class="legend">Australia S2: Ferrari +0.37%</text>
<text x="1055" y="443" class="legend">Australia S3: Mercedes +0.30%</text>
<text x="1055" y="462" class="legend">Canadian S1: Mercedes +0.53%</text>
<text x="1055" y="481" class="legend">Canadian S2: Mercedes +0.73%</text>
<text x="1055" y="500" class="legend">Canadian S3: Mercedes +0.60%</text>
<text x="1055" y="519" class="legend">China S1: Mercedes +0.62%</text>
<text x="1055" y="538" class="legend">China S2: Mercedes +0.16%</text>
<text x="1055" y="557" class="legend">China S3: Mercedes +0.60%</text>
<text x="1055" y="576" class="legend">Japan S1: Mercedes +1.01%</text>
<text x="1055" y="595" class="legend">Japan S2: Ferrari +0.20%</text>
<text x="1055" y="614" class="legend">Japan S3: Mercedes +0.41%</text>
<text x="1055" y="633" class="legend">Miami S1: McLaren +0.67%</text>
<text x="1055" y="652" class="legend">Miami S2: Mercedes +0.32%</text>
<text x="1055" y="671" class="legend">Miami S3: McLaren +0.40%</text>
<text x="1055" y="830" class="subtitle">Advantage = (top-four median - fastest median)</text>
<text x="1055" y="850" class="subtitle">/ top-four median, using sector medians.</text>
</svg>